<svg width="62" height="62" viewBox="0 0 62 62" fill="none" xmlns="http://www.w3.org/2000/svg">
<path d="M2.53522 21.8291L30.7606 1.32218L58.9859 21.8291L48.2048 55.01H13.3163L2.53522 21.8291Z" stroke="#A259FF" stroke-width="1.65305"/>
<path fill-rule="evenodd" clip-rule="evenodd" d="M22.8889 27.0644C22.3455 27.0644 21.9049 27.5049 21.9049 28.0484V37.888C21.9049 38.4314 22.3455 38.8719 22.8889 38.8719H38.6322C39.1757 38.8719 39.6162 38.4314 39.6162 37.888V28.0484C39.6162 27.5049 39.1757 27.0644 38.6322 27.0644H22.8889ZM19.937 28.0484C19.937 26.4181 21.2586 25.0965 22.8889 25.0965H38.6322C40.2625 25.0965 41.5841 26.4181 41.5841 28.0484V37.888C41.5841 39.5182 40.2625 40.8398 38.6322 40.8398H22.8889C21.2586 40.8398 19.937 39.5182 19.937 37.888V28.0484Z" fill="#A259FF"/>
<path fill-rule="evenodd" clip-rule="evenodd" d="M26.7054 22.0252C27.2589 21.4716 28.0098 21.1606 28.7926 21.1606H32.7285C33.5114 21.1606 34.2622 21.4716 34.8158 22.0252C35.3694 22.5788 35.6804 23.3296 35.6804 24.1125V39.8559C35.6804 40.3993 35.2398 40.8398 34.6964 40.8398C34.153 40.8398 33.7124 40.3993 33.7124 39.8559V24.1125C33.7124 23.8516 33.6088 23.6013 33.4242 23.4168C33.2397 23.2322 32.9894 23.1286 32.7285 23.1286H28.7926C28.5317 23.1286 28.2814 23.2322 28.0969 23.4168C27.9124 23.6013 27.8087 23.8516 27.8087 24.1125V39.8559C27.8087 40.3993 27.3682 40.8398 26.8247 40.8398C26.2813 40.8398 25.8408 40.3993 25.8408 39.8559V24.1125C25.8408 23.3296 26.1518 22.5788 26.7054 22.0252Z" fill="#A259FF"/>
</svg>
