<svg width="24" height="25" viewBox="0 0 24 25" fill="none" xmlns="http://www.w3.org/2000/svg">
<path d="M20.3398 9.82001L6.33976 2.82001C5.78725 2.54502 5.16338 2.44712 4.55319 2.53966C3.94301 2.6322 3.37622 2.91068 2.93009 3.33712C2.48396 3.76357 2.18021 4.31723 2.06025 4.92262C1.94029 5.52801 2.00996 6.15566 2.25976 6.72001L4.65976 12.09C4.71422 12.2198 4.74226 12.3592 4.74226 12.5C4.74226 12.6408 4.71422 12.7802 4.65976 12.91L2.25976 18.28C2.05646 18.7367 1.97051 19.237 2.00974 19.7354C2.04896 20.2337 2.2121 20.7144 2.48434 21.1337C2.75658 21.553 3.12928 21.8976 3.56858 22.1362C4.00788 22.3748 4.49984 22.4999 4.99976 22.5C5.46799 22.4953 5.92925 22.386 6.34976 22.18L20.3498 15.18C20.8464 14.9302 21.2638 14.5473 21.5555 14.0741C21.8471 13.6009 22.0016 13.0559 22.0016 12.5C22.0016 11.9441 21.8471 11.3992 21.5555 10.9259C21.2638 10.4527 20.8464 10.0698 20.3498 9.82001H20.3398ZM19.4498 13.39L5.44976 20.39C5.26592 20.4783 5.05949 20.5082 4.85815 20.4759C4.6568 20.4435 4.47017 20.3503 4.32327 20.2089C4.17638 20.0674 4.07624 19.8844 4.03629 19.6844C3.99634 19.4845 4.01849 19.277 4.09976 19.09L6.48976 13.72C6.5207 13.6483 6.54741 13.5748 6.56976 13.5H13.4598C13.725 13.5 13.9793 13.3946 14.1669 13.2071C14.3544 13.0196 14.4598 12.7652 14.4598 12.5C14.4598 12.2348 14.3544 11.9804 14.1669 11.7929C13.9793 11.6054 13.725 11.5 13.4598 11.5H6.56976C6.54741 11.4252 6.5207 11.3517 6.48976 11.28L4.09976 5.91001C4.01849 5.72297 3.99634 5.51556 4.03629 5.31558C4.07624 5.1156 4.17638 4.93261 4.32327 4.79115C4.47017 4.6497 4.6568 4.55654 4.85815 4.52416C5.05949 4.49178 5.26592 4.52174 5.44976 4.61001L19.4498 11.61C19.6136 11.6939 19.751 11.8214 19.847 11.9785C19.943 12.1355 19.9938 12.316 19.9938 12.5C19.9938 12.6841 19.943 12.8645 19.847 13.0216C19.751 13.1786 19.6136 13.3061 19.4498 13.39Z" fill="#F8F8F8"/>
</svg>
