<svg width="124" height="124" viewBox="0 0 124 124" fill="none" xmlns="http://www.w3.org/2000/svg">
<path d="M18.3106 83.6297L29.8973 17.9875C29.9783 17.4921 30.1571 17.0177 30.4233 16.5921C30.6894 16.1665 31.0377 15.7981 31.4477 15.5084C31.8577 15.2188 32.3212 15.0136 32.8113 14.9049C33.3014 14.7962 33.8082 14.7862 34.3022 14.8754L60.7315 19.5196C61.73 19.7063 62.6155 20.2774 63.1974 21.11C63.7794 21.9427 64.0114 22.9705 63.8436 23.9724L52.209 89.9976C51.4122 94.4434 48.9068 98.4007 45.2291 101.023C41.5513 103.644 36.9933 104.723 32.5307 104.026C23.0028 102.494 16.6348 93.1576 18.3106 83.6297Z" stroke="white" stroke-width="3.67711" stroke-linecap="round" stroke-linejoin="round"/>
<path d="M57.379 60.5524L92.2828 47.8645C92.7573 47.6892 93.2619 47.6097 93.7673 47.6306C94.2727 47.6514 94.769 47.7721 95.2275 47.9858C95.686 48.1995 96.0977 48.5019 96.4387 48.8755C96.7797 49.2491 97.0433 49.6866 97.2143 50.1626L106.407 75.347C106.746 76.2996 106.695 77.3476 106.264 78.2624C105.834 79.1773 105.059 79.8848 104.109 80.2307L41.1001 103.165" stroke="white" stroke-width="3.67711" stroke-linecap="round" stroke-linejoin="round"/>
<path d="M106.073 78.6028V100.388C106.073 101.404 105.67 102.378 104.952 103.096C104.233 103.815 103.259 104.218 102.243 104.218H35.2124" stroke="white" stroke-width="3.67711" stroke-linecap="round" stroke-linejoin="round"/>
<path d="M35.2123 92.7271C38.3854 92.7271 40.9578 90.1547 40.9578 86.9816C40.9578 83.8084 38.3854 81.2361 35.2123 81.2361C32.0391 81.2361 29.4668 83.8084 29.4668 86.9816C29.4668 90.1547 32.0391 92.7271 35.2123 92.7271Z" fill="white"/>
</svg>
