<svg width="124" height="124" viewBox="0 0 124 124" fill="none" xmlns="http://www.w3.org/2000/svg">
<path d="M12.2903 29.6234H73.5755C77.6389 29.6234 81.536 31.2376 84.4093 34.1109C87.2826 36.9842 88.8968 40.8812 88.8968 44.9447V90.9086C88.8968 91.9245 88.4932 92.8987 87.7749 93.6171C87.0566 94.3354 86.0823 94.7389 85.0664 94.7389H23.7813C19.7178 94.7389 15.8208 93.1247 12.9475 90.2514C10.0742 87.3781 8.45996 83.4811 8.45996 79.4176V33.4537C8.45996 32.4379 8.86351 31.4636 9.58184 30.7453C10.3002 30.027 11.2744 29.6234 12.2903 29.6234V29.6234Z" stroke="white" stroke-width="3.67711" stroke-linecap="round" stroke-linejoin="round"/>
<path d="M88.897 54.5205L115.709 39.1992V85.1631L88.897 69.8418" stroke="white" stroke-width="3.67711" stroke-linecap="round" stroke-linejoin="round"/>
</svg>
