<svg width="17" height="13" viewBox="0 0 17 13" fill="none" xmlns="http://www.w3.org/2000/svg">
<path d="M8.25 9.6875C9.1375 9.6875 9.89062 9.37813 10.5094 8.75937C11.1281 8.14062 11.4375 7.3875 11.4375 6.5C11.4375 5.6125 11.1281 4.85938 10.5094 4.24063C9.89062 3.62188 9.1375 3.3125 8.25 3.3125C7.3625 3.3125 6.60938 3.62188 5.99063 4.24063C5.37188 4.85938 5.0625 5.6125 5.0625 6.5C5.0625 7.3875 5.37188 8.14062 5.99063 8.75937C6.60938 9.37813 7.3625 9.6875 8.25 9.6875ZM8.25 8.6C7.6625 8.6 7.16563 8.39688 6.75937 7.99063C6.35312 7.58437 6.15 7.0875 6.15 6.5C6.15 5.9125 6.35312 5.41563 6.75937 5.00937C7.16563 4.60312 7.6625 4.4 8.25 4.4C8.8375 4.4 9.33438 4.60312 9.74063 5.00937C10.1469 5.41563 10.35 5.9125 10.35 6.5C10.35 7.0875 10.1469 7.58437 9.74063 7.99063C9.33438 8.39688 8.8375 8.6 8.25 8.6ZM8.25 12.125C6.425 12.125 4.775 11.6062 3.3 10.5687C1.825 9.53125 0.725 8.175 0 6.5C0.725 4.825 1.825 3.46875 3.3 2.43125C4.775 1.39375 6.425 0.875 8.25 0.875C10.075 0.875 11.725 1.39375 13.2 2.43125C14.675 3.46875 15.775 4.825 16.5 6.5C15.775 8.175 14.675 9.53125 13.2 10.5687C11.725 11.6062 10.075 12.125 8.25 12.125ZM8.25 11C9.7625 11 11.1531 10.5906 12.4219 9.77188C13.6906 8.95312 14.6562 7.8625 15.3187 6.5C14.6562 5.1375 13.6906 4.04688 12.4219 3.22812C11.1531 2.40937 9.7625 2 8.25 2C6.7375 2 5.34688 2.40937 4.07812 3.22812C2.80938 4.04688 1.8375 5.1375 1.1625 6.5C1.8375 7.8625 2.80938 8.95312 4.07812 9.77188C5.34688 10.5906 6.7375 11 8.25 11Z" fill="#F5F7FA"/>
</svg>
