<svg width="26" height="26" viewBox="0 0 26 26" fill="none" xmlns="http://www.w3.org/2000/svg">
<path fill-rule="evenodd" clip-rule="evenodd" d="M3.25264 5.83397C3.25264 3.49654 5.1475 1.60168 7.48492 1.60168H16.3126C17.435 1.60168 18.5115 2.04758 19.3052 2.84129L21.0583 4.59436C21.852 5.38807 22.2979 6.46456 22.2979 7.58704V20.647C22.2979 22.9844 20.4031 24.8792 18.0656 24.8792H7.48492C5.1475 24.8792 3.25264 22.9844 3.25264 20.647V5.83397ZM20.1818 9.00818V20.647C20.1818 21.8157 19.2343 22.7631 18.0656 22.7631H7.48492C6.31621 22.7631 5.36878 21.8157 5.36878 20.647V5.83397C5.36878 4.66525 6.31621 3.71783 7.48492 3.71783H14.8914V5.83397C14.8914 7.58704 16.3126 9.00818 18.0656 9.00818H20.1818ZM20.0644 6.89204C19.9605 6.59324 19.7899 6.31864 19.562 6.0907L17.8089 4.33763C17.581 4.10968 17.3064 3.93911 17.0076 3.83521V5.83397C17.0076 6.41832 17.4813 6.89204 18.0656 6.89204H20.0644Z" fill="#F5F7FA"/>
<path d="M12.3663 10.1442C12.2416 10.1959 12.1246 10.2724 12.0232 10.3739L8.84898 13.5481C8.43578 13.9613 8.43578 14.6312 8.84898 15.0444C9.26218 15.4576 9.93212 15.4576 10.3453 15.0444L11.7133 13.6764V18.5285C11.7133 19.1129 12.187 19.5866 12.7714 19.5866C13.3557 19.5866 13.8294 19.1129 13.8294 18.5285V13.6764L15.1974 15.0444C15.6106 15.4576 16.2805 15.4576 16.6937 15.0444C17.1069 14.6312 17.1069 13.9613 16.6937 13.5481L13.5195 10.3739C13.2078 10.0621 12.7499 9.98557 12.3663 10.1442Z" fill="#F5F7FA"/>
</svg>
