<svg width="36" height="36" viewBox="0 0 36 36" fill="none" xmlns="http://www.w3.org/2000/svg">
<g clip-path="url(#clip0_62_2480)">
<path d="M32.5098 27.83C31.5455 26.9704 30.7013 25.9849 29.9998 24.9C29.234 23.4026 28.775 21.7673 28.6498 20.09V15.15C28.6564 12.5156 27.7008 9.9695 25.9625 7.99C24.2243 6.0105 21.823 4.73389 19.2098 4.40002V3.11002C19.2098 2.75596 19.0692 2.4164 18.8188 2.16604C18.5684 1.91568 18.2289 1.77502 17.8748 1.77502C17.5207 1.77502 17.1812 1.91568 16.9308 2.16604C16.6805 2.4164 16.5398 2.75596 16.5398 3.11002V4.42002C13.9501 4.77795 11.5778 6.06228 9.86233 8.03513C8.14689 10.008 7.20453 12.5357 7.2098 15.15V20.09C7.08456 21.7673 6.62558 23.4026 5.8598 24.9C5.17069 25.9824 4.34 26.9678 3.3898 27.83C3.28314 27.9237 3.19765 28.0391 3.13902 28.1684C3.0804 28.2977 3.04998 28.438 3.0498 28.58V29.94C3.0498 30.2052 3.15516 30.4596 3.3427 30.6471C3.53023 30.8347 3.78459 30.94 4.0498 30.94H31.8498C32.115 30.94 32.3694 30.8347 32.5569 30.6471C32.7444 30.4596 32.8498 30.2052 32.8498 29.94V28.58C32.8496 28.438 32.8192 28.2977 32.7606 28.1684C32.702 28.0391 32.6165 27.9237 32.5098 27.83ZM5.1298 28.94C6.06021 28.0412 6.8794 27.034 7.56981 25.94C8.53442 24.1315 9.09724 22.136 9.2198 20.09V15.15C9.18015 13.9781 9.37673 12.8101 9.79785 11.7157C10.219 10.6213 10.856 9.62281 11.6711 8.77973C12.4861 7.93664 13.4624 7.26619 14.542 6.8083C15.6215 6.3504 16.7822 6.11443 17.9548 6.11443C19.1274 6.11443 20.2881 6.3504 21.3676 6.8083C22.4472 7.26619 23.4235 7.93664 24.2386 8.77973C25.0536 9.62281 25.6906 10.6213 26.1118 11.7157C26.5329 12.8101 26.7295 13.9781 26.6898 15.15V20.09C26.8124 22.136 27.3752 24.1315 28.3398 25.94C29.0302 27.034 29.8494 28.0412 30.7798 28.94H5.1298Z" fill="white"/>
<path d="M17.9998 34.28C18.6298 34.2655 19.2343 34.0287 19.7064 33.6114C20.1786 33.1942 20.488 32.6234 20.5798 32H15.3198C15.4143 32.6403 15.7381 33.2245 16.2311 33.6439C16.7241 34.0633 17.3526 34.2894 17.9998 34.28Z" fill="white"/>
<circle cx="25" cy="7" r="7" fill="#EE3232"/>
</g>
<defs>
<clipPath id="clip0_62_2480">
<rect width="36" height="36" fill="white"/>
</clipPath>
</defs>
</svg>
