<svg width="36" height="36" viewBox="0 0 36 36" fill="none" xmlns="http://www.w3.org/2000/svg">
<path d="M23.2502 21H22.0652L21.6452 20.595C22.5826 19.5059 23.2677 18.2231 23.6515 16.8384C24.0353 15.4536 24.1083 14.0012 23.8652 12.585C23.1602 8.41496 19.6802 5.08496 15.4802 4.57496C14.0036 4.38816 12.5039 4.54162 11.0957 5.0236C9.6876 5.50557 8.40837 6.30329 7.35595 7.35571C6.30353 8.40813 5.50582 9.68736 5.02384 11.0955C4.54186 12.5036 4.3884 14.0034 4.57521 15.48C5.08521 19.68 8.41521 23.16 12.5852 23.865C14.0014 24.108 15.4539 24.0351 16.8386 23.6513C18.2234 23.2675 19.5062 22.5824 20.5952 21.645L21.0002 22.065V23.25L27.3752 29.625C27.9902 30.24 28.9952 30.24 29.6102 29.625C30.2252 29.01 30.2252 28.005 29.6102 27.39L23.2502 21ZM14.2502 21C10.5152 21 7.50021 17.985 7.50021 14.25C7.50021 10.515 10.5152 7.49996 14.2502 7.49996C17.9852 7.49996 21.0002 10.515 21.0002 14.25C21.0002 17.985 17.9852 21 14.2502 21Z" fill="white"/>
</svg>
